<?xml version="1.0" encoding="UTF-8"?>
<svg width="2456px" height="2456px" viewBox="0 0 2456 2456" version="1.1" xmlns="http://www.w3.org/2000/svg" xmlns:xlink="http://www.w3.org/1999/xlink">
    <!-- Generator: Sketch 49.3 (51167) - http://www.bohemiancoding.com/sketch -->
    <title>openwhale-logo</title>
    <desc>Created with Sketch.</desc>
    <defs>
        <linearGradient x1="94.6516712%" y1="100%" x2="59.7437528%" y2="61.7559679%" id="linearGradient-1">
            <stop stop-color="#E9E9E9" offset="0%"></stop>
            <stop stop-color="#ACC26B" offset="0%"></stop>
            <stop stop-color="#3DA63A" offset="100%"></stop>
        </linearGradient>
    </defs>
    <g id="Page-1" stroke="none" stroke-width="1" fill="none" fill-rule="evenodd">
        <g id="openwhale-logo-text">
            <g id="openwhale-logo">
                <circle id="Background" fill="#1D531D" cx="1228" cy="1228" r="1228"></circle>
                <g id="Whale" transform="translate(292.000000, 388.000000)">
                    <path d="M832.403595,1590.0738 C510.697791,1604.09449 331.231626,1598.15203 294.005101,1572.24641 C255.551338,1545.48676 273.614736,1455.60717 348.195296,1302.60764 C157.382407,1035.24141 392.764867,565.671334 197.399873,411.37799 C174.566725,393.345063 29.8277894,405.976808 4.17839818,355.41042 C-22.9834935,301.862219 108.788837,277.370276 137.268448,208.91024 C153.055719,170.960385 82.5240993,85.2081993 85.3303239,61.552281 C85.3303239,-71.1341837 332.489933,46.5042602 361.899777,96.2512735 C424.975305,202.944088 310.521532,254.733043 361.899777,317.272272 C450.04121,424.560818 643.070045,485.307828 925.128553,485.307828 C1239.97986,485.307828 1649.07385,324.629391 1787.25345,355.41042 C1917.89665,384.512635 1937.52081,475.199003 1937.52081,743.707097 C1937.52081,1110.54933 1720.03871,1537.6497 1404.54543,1610.50407 C1243.02915,1647.80175 1046.77186,1655.29911 832.403603,1590.0738 Z" id="Whale-body" stroke="#1D531D" stroke-width="50" fill="url(#linearGradient-1)"></path>
                    <path d="M846.893997,985.753154 C980.611013,1064.75892 1146.47154,1026.16692 1387.40363,879.638485 C1548.02503,781.952864 1761.84902,737.310378 2028.87559,745.711027" id="Mouth" stroke="#1D531D" stroke-width="50" stroke-linecap="round" stroke-linejoin="round" transform="translate(1437.884792, 885.324606) rotate(340.000000) translate(-1437.884792, -885.324606) "></path>
                    <ellipse id="Eye" stroke="#979797" fill="#1D531D" cx="916.5" cy="945" rx="90.5" ry="60"></ellipse>
                </g>
            </g>
        </g>
    </g>
</svg>